<svg width="348" height="117" viewBox="0 0 348 117" fill="none" xmlns="http://www.w3.org/2000/svg">
<path fill-rule="evenodd" clip-rule="evenodd" d="M42.0948 77.4834H21.1271C16.9814 77.4834 14.5897 76.7086 14.5897 73.9967C14.5897 70.355 17.4598 68.2629 22.8811 65.706C25.6715 66.6358 28.7808 67.0232 32.1292 67.0232C46.0811 67.0232 57.9601 57.1053 57.9601 45.5603C57.9601 40.1364 55.4089 35.1 51.1835 31.3033C54.532 16.7364 62.6639 8.21324 68.4041 8.21324C71.5441 8.21324 72.7161 9.83987 73.9343 11.5306C75.2524 13.3599 76.6245 15.2642 80.6021 15.2642C83.8708 15.2642 87.7773 12.6298 87.7773 8.05828C87.7773 2.94437 83.6316 0 77.8117 0C67.0488 0 52.5388 7.51589 47.4364 28.4364C43.1313 25.7245 37.7897 24.0973 32.1292 24.0973C18.0976 24.0973 6.05911 33.8603 6.05911 45.5603C6.05911 53.2311 10.6034 60.0497 18.1773 63.9238C12.6763 66.3258 6.69691 69.2702 6.69691 76.0113C6.69691 80.8152 10.1251 85.2318 15.6261 87.0139C6.77663 88.6411 0 93.2901 0 99.8762C0 111.111 12.6763 116.923 30.455 116.923C48.7918 116.923 63.8598 108.477 63.8598 93.445C64.0192 81.9 54.0536 77.4834 42.0948 77.4834ZM32.0495 29.8311C40.1814 29.8311 45.4433 35.8748 45.4433 45.4828C45.4433 55.0132 40.1814 61.057 32.0495 61.057C23.7581 61.057 18.4962 55.0132 18.4962 45.4828C18.5759 35.8748 23.8378 29.8311 32.0495 29.8311ZM10.8426 98.8689C10.8426 106.695 19.7718 110.414 31.6509 110.414C45.0447 110.414 53.4158 104.68 53.3361 96.6219C53.3361 90.5781 49.4296 88.4086 40.5003 88.4086H19.3732C14.5897 90.4232 10.8426 93.5225 10.8426 98.8689Z" fill="#DEA531"/>
<path fill-rule="evenodd" clip-rule="evenodd" d="M213.026 77.4834H192.058C187.912 77.4834 185.52 76.7086 185.52 73.9967C185.52 70.355 188.391 68.2629 193.812 65.7059C196.602 66.6357 199.712 67.0232 203.06 67.0232C217.012 67.0232 228.891 57.1053 228.891 45.5603C228.891 41.3761 227.376 37.4245 224.745 34.0927C225.941 27.3516 229.05 25.7245 230.645 25.7245C231.571 25.7245 232.203 26.5943 232.96 27.6373C234.094 29.1988 235.51 31.1483 238.617 31.1483C241.647 31.1483 245.235 28.5914 245.235 24.1748C245.235 19.2159 241.806 16.4265 236.784 16.4265C229.29 16.4265 223.629 22.1603 221.158 30.5285C216.454 26.5768 209.996 24.1748 202.98 24.1748C188.949 24.1748 176.91 33.9377 176.91 45.6377C176.91 53.3086 181.455 60.1271 189.028 64.0013C183.527 66.4033 177.548 69.3477 177.548 76.0887C177.548 80.8927 180.976 85.3093 186.477 87.0914C177.628 88.7185 170.851 93.3675 170.851 99.9536C170.851 111.189 183.527 117 201.306 117C219.643 117 234.711 108.554 234.711 93.5225C234.95 81.9 225.064 77.4834 213.026 77.4834ZM203.06 29.8311C211.192 29.8311 216.454 35.8748 216.454 45.4828C216.454 55.0132 211.192 61.0569 203.06 61.0569C194.769 61.0569 189.507 55.0132 189.507 45.4828C189.507 35.8748 194.769 29.8311 203.06 29.8311ZM181.853 98.8689C181.853 106.695 190.782 110.414 202.661 110.414C216.055 110.414 224.347 104.68 224.347 96.6219C224.347 90.5781 220.44 88.4086 211.511 88.4086H190.384C185.6 90.4232 181.853 93.5225 181.853 98.8689Z" fill="#DEA531"/>
<path d="M87.2989 80.1179V24.0974H85.3855L65.9326 29.5987V32.543L72.3106 35.3324C74.7821 36.4172 75.4996 36.8046 75.4996 39.594V80.1179C75.4996 82.3649 74.7821 82.6748 66.5704 82.6748V88.4086H96.3876V82.6748C87.9368 82.6748 87.2989 82.4424 87.2989 80.1179Z" fill="#DEA531"/>
<path d="M142.23 82.6748V88.4086H172.047V82.6748C163.756 82.6748 163.118 82.4424 163.118 80.1179V46.4901C163.118 34.5576 156.819 24.0974 143.426 24.0974C126.046 24.0974 121.98 42.9258 121.98 42.9258V24.0974H120.066L100.613 29.5987V32.543L106.991 35.3324C109.463 36.4172 110.18 36.8046 110.18 39.594V80.1179C110.18 82.3649 109.463 82.6748 101.251 82.6748V88.4086H131.068V82.6748C122.777 82.6748 122.139 82.4424 122.139 80.1179V61.0569C122.139 42.9258 129.872 32.7755 138.802 32.7755C147.332 32.7755 151.318 38.1219 151.318 47.4973V80.0404C151.159 82.4424 150.521 82.6748 142.23 82.6748Z" fill="#DEA531"/>
<path fill-rule="evenodd" clip-rule="evenodd" d="M250.177 55.6331C250.177 72.9119 259.983 81.745 270.985 81.745C278.161 81.745 282.865 79.0331 287.967 72.2146L293.069 75.7013C288.445 84.7669 278.48 89.8808 268.275 89.8808C252.569 89.8808 238.378 77.8709 238.378 57.7252C238.378 38.1219 252.569 24.1748 268.195 24.1748C285.017 24.1748 292.91 36.1073 292.91 50.9841V55.2457H250.177V55.6331ZM281.27 49.357C281.19 37.8894 277.443 30.6835 267.637 30.6835C259.505 30.6835 252.33 37.1146 250.576 49.357H281.27Z" fill="#DEA531"/>
<path d="M338.752 24.0974C323.843 24.0974 318.183 42.9258 318.183 42.9258V24.0974H316.269L296.816 29.5987V32.543L303.194 35.3324C305.666 36.4172 306.383 36.8046 306.383 39.594V80.1179C306.383 82.3649 305.666 82.6748 297.454 82.6748V88.4086H331.417V82.6748C318.98 82.6748 318.342 82.4424 318.342 79.8854V61.1344C318.342 43.0033 327.032 35.0225 331.895 34.6351C335.084 34.6351 336.759 39.3616 340.586 39.3616C344.731 39.3616 348 36.8046 348 32.1556C347.84 28.1265 344.811 24.0974 338.752 24.0974Z" fill="#DEA531"/>
</svg>
